<svg xmlns="http://www.w3.org/2000/svg" width="990" height="278" viewBox="0 0 990 278">
<g>
<path d="M 932.50 277.00 C931.32,277.51 942.73,277.89 960.30,277.93 L 990.00 278.00 L 0.00 278.00 L 93.25 277.92 C144.54,277.88 185.94,277.62 185.25,277.34 C184.26,276.94 184.00,251.41 184.00,154.42 L 184.00 32.00 L 202.00 32.00 L 202.00 153.80 C202.00,247.20 201.72,275.88 200.80,276.80 C199.87,277.73 263.59,277.99 487.55,277.94 L 775.50 277.88 L 769.00 275.61 C757.46,271.57 751.81,268.04 743.40,259.61 C734.50,250.69 728.59,240.39 725.27,228.00 C722.77,218.70 722.78,189.24 725.28,180.00 C731.83,155.79 748.65,138.26 770.83,132.54 C779.07,130.41 797.58,130.39 806.69,132.51 C815.76,134.61 826.15,139.79 833.78,146.01 L 840.05 151.13 L 839.78 165.82 L 839.50 180.50 L 829.37 180.78 L 819.24 181.07 L 818.65 177.78 C818.33,175.98 817.78,172.02 817.42,169.00 C816.55,161.67 815.14,159.71 808.29,156.34 C802.95,153.72 801.61,153.50 791.00,153.50 C780.68,153.50 778.93,153.77 773.91,156.12 C766.91,159.40 762.40,163.87 758.28,171.63 C753.59,180.43 752.03,188.38 752.01,203.61 C752.00,219.85 753.01,225.48 757.63,234.91 C761.86,243.53 767.45,249.53 774.50,253.02 C778.92,255.21 780.77,255.50 790.50,255.47 C799.85,255.45 802.29,255.09 806.77,253.09 C812.56,250.51 817.00,246.02 817.00,242.76 C817.00,241.60 817.50,237.81 818.10,234.33 L 819.21 228.00 L 840.00 228.00 L 840.00 256.84 L 834.75 261.48 C826.28,268.96 818.13,273.01 807.23,275.15 C801.95,276.19 797.41,277.26 797.15,277.52 C796.88,277.78 822.28,277.97 853.58,277.94 L 910.50 277.88 L 904.00 275.61 C895.46,272.63 891.60,270.60 885.22,265.74 C874.89,257.86 865.39,243.00 861.42,228.50 C858.98,219.57 858.37,195.65 860.32,185.32 C865.37,158.58 882.61,138.53 905.64,132.59 C913.63,130.53 932.55,130.47 940.29,132.49 C953.79,136.00 966.05,144.60 974.55,156.52 C980.33,164.61 982.53,169.71 984.47,179.51 C985.34,183.91 986.32,188.62 986.65,190.00 L 987.25 192.50 L 988.58 189.50 C989.65,187.08 989.92,168.53 989.95,93.25 L 990.00 0.00 L 990.00 267.30 L 989.80 248.25 C989.64,231.89 989.11,217.89 988.62,217.14 C987.26,215.03 986.03,217.68 986.02,222.77 C986.01,225.12 984.86,230.29 983.48,234.26 C977.83,250.41 966.30,264.06 952.08,271.40 C945.71,274.69 941.95,276.02 938.84,276.07 C936.45,276.11 933.60,276.53 932.50,277.00 ZM 1.00 202.50 C0.34,202.09 0.00,214.82 0.00,239.94 L 0.00 0.00 L 0.13 91.75 C0.22,153.79 0.56,181.08 1.19,176.04 C3.48,157.71 11.92,141.02 25.97,127.00 C47.09,105.94 74.74,97.34 104.62,102.55 C115.85,104.50 120.32,106.03 130.95,111.55 C151.74,122.36 168.54,143.49 174.64,166.50 C177.26,176.37 177.25,199.66 174.63,209.50 C168.01,234.36 150.77,255.24 127.19,266.98 C115.54,272.77 105.87,275.15 91.50,275.73 C80.85,276.16 78.32,275.92 69.00,273.57 C50.30,268.86 37.15,261.23 24.35,247.66 C20.02,243.08 14.53,235.88 12.10,231.61 C7.80,224.05 2.00,208.77 2.00,205.01 C2.00,203.97 1.55,202.84 1.00,202.50 ZM 72.36 261.57 C81.70,263.69 102.64,262.85 110.97,260.01 C152.67,245.80 174.38,203.53 160.45,163.65 C152.68,141.43 135.28,124.81 111.40,116.81 C105.31,114.77 102.61,114.50 88.50,114.53 C73.92,114.55 71.81,114.79 64.72,117.18 C49.66,122.26 34.35,133.70 25.83,146.25 C14.88,162.37 10.70,182.82 14.40,202.16 C19.94,231.11 43.18,254.93 72.36,261.57 ZM 588.79 267.28 L 588.50 275.50 L 530.00 276.03 L 530.00 267.58 C530.00,267.12 530.00,266.69 530.00,266.27 C529.99,262.31 529.98,260.44 530.91,259.39 C531.85,258.35 533.72,258.14 537.48,257.50 C539.57,257.14 541.08,257.20 542.17,256.55 C545.05,254.85 545.04,248.27 545.01,216.49 C545.00,212.70 545.00,208.56 545.00,204.03 C545.00,198.82 545.01,194.13 545.01,189.91 C545.06,160.15 545.07,153.90 542.35,152.32 C541.25,151.67 539.69,151.80 537.50,151.42 C530.24,150.18 530.00,149.84 530.00,140.96 L 530.00 133.00 L 582.80 133.00 L 583.99 136.25 C585.09,139.25 595.30,168.76 608.64,207.50 C611.67,216.30 615.03,226.19 616.11,229.48 C618.26,236.05 619.66,238.16 620.40,235.92 C620.66,235.14 622.44,230.00 624.36,224.50 C626.27,219.00 634.14,196.27 641.83,174.00 L 655.81 133.50 L 682.40 133.23 L 709.00 132.97 L 709.00 140.95 C709.00,149.84 708.76,150.18 701.50,151.42 C699.32,151.80 697.76,151.67 696.66,152.31 C693.93,153.90 693.94,160.18 693.99,190.24 C693.99,194.49 694.00,199.23 694.00,204.50 L 694.00 255.86 L 699.75 257.00 C704.98,258.03 707.31,258.31 708.29,259.60 C709.07,260.63 709.00,262.30 708.86,265.51 C708.84,266.07 708.81,266.67 708.79,267.33 L 708.50 275.50 L 650.00 276.03 L 650.00 267.58 C650.00,267.12 650.00,266.69 650.00,266.27 C649.99,262.31 649.98,260.44 650.91,259.39 C651.85,258.35 653.72,258.14 657.48,257.50 C665.00,256.22 665.00,256.22 665.03,243.71 C665.04,237.55 665.69,219.23 666.46,203.00 C667.24,186.77 667.52,173.14 667.08,172.69 C666.65,172.25 664.84,176.08 663.06,181.19 C659.56,191.26 641.85,240.58 634.30,261.28 C631.74,268.31 629.09,274.51 628.42,275.07 C627.73,275.64 623.33,275.95 618.40,275.79 L 609.60 275.50 L 600.49 250.00 C575.00,178.67 573.51,174.67 572.32,174.27 C571.81,174.10 571.53,176.74 571.70,180.23 C573.43,217.09 574.00,232.68 574.00,243.28 L 574.00 255.80 L 579.25 256.96 C582.14,257.59 585.53,258.33 586.79,258.59 C588.98,259.04 589.07,259.41 588.79,267.28 ZM 328.78 273.51 C320.96,275.98 320.61,276.00 282.95,276.00 L 245.00 276.00 L 245.00 267.57 C245.00,267.11 245.00,266.67 245.00,266.26 C244.99,262.31 244.98,260.44 245.91,259.39 C246.85,258.35 248.72,258.14 252.48,257.50 C254.58,257.14 256.10,257.21 257.20,256.55 C260.07,254.85 260.03,248.24 259.83,216.37 C259.81,212.53 259.78,208.33 259.76,203.72 L 259.50 152.52 L 253.43 151.43 C250.10,150.83 246.83,150.02 246.18,149.61 C245.43,149.15 245.00,145.98 245.00,140.94 L 245.00 133.00 L 282.25 133.01 C312.04,133.03 320.79,133.33 325.95,134.55 C345.90,139.25 362.22,155.10 367.73,175.11 C370.31,184.51 370.27,223.62 367.66,232.92 C362.20,252.38 347.68,267.54 328.78,273.51 ZM 428.80 267.59 L 428.50 275.50 L 404.93 275.77 C391.97,275.91 381.06,275.73 380.68,275.35 C380.31,274.97 380.00,271.19 380.00,266.94 C380.00,258.56 380.38,258.00 386.06,258.00 C389.76,258.00 390.96,256.13 395.33,243.50 C398.74,233.64 412.02,195.39 420.49,171.00 C422.88,164.12 426.78,152.88 429.17,146.00 L 433.50 133.50 L 448.65 133.22 L 463.80 132.95 L 466.80 141.72 C468.44,146.55 474.30,163.55 479.80,179.50 C485.31,195.45 493.52,219.30 498.07,232.50 C502.61,245.70 506.81,256.83 507.41,257.23 C508.01,257.64 509.85,257.98 511.50,258.00 C516.64,258.05 517.12,258.92 516.79,267.59 L 516.50 275.50 L 492.25 275.77 L 468.00 276.04 L 468.00 267.62 C468.00,258.69 468.39,258.00 473.38,258.00 C478.26,258.00 478.16,254.93 472.80,240.75 L 471.76 238.00 L 425.06 238.00 L 422.45 246.57 C421.01,251.28 420.09,255.78 420.39,256.57 C420.69,257.36 422.19,258.01 423.72,258.02 C428.62,258.04 429.12,258.98 428.80,267.59 ZM 914.50 255.06 C925.43,257.73 936.68,254.97 944.70,247.64 C954.89,238.33 959.15,225.55 959.26,204.00 C959.35,184.89 955.50,171.84 947.08,162.70 C940.86,155.95 934.60,153.57 923.00,153.55 C911.13,153.51 904.43,156.20 898.58,163.33 C889.87,173.96 885.64,194.33 887.92,214.64 C890.49,237.41 899.71,251.45 914.50,255.06 ZM 289.00 154.78 L 289.00 254.22 L 303.75 253.85 C317.59,253.51 318.78,253.33 323.00,250.83 C331.98,245.52 338.06,236.47 340.12,225.31 C340.75,221.94 341.05,211.32 340.84,200.00 C340.48,180.63 340.46,180.46 337.40,174.00 C333.39,165.54 330.35,162.06 323.83,158.48 C318.74,155.68 317.83,155.53 303.75,155.16 ZM 433.00 214.74 C433.00,216.66 462.85,216.55 463.59,214.62 C463.88,213.86 461.34,204.53 457.95,193.87 C454.55,183.22 451.33,172.93 450.79,171.00 C449.17,165.22 448.25,165.44 446.16,172.13 C445.07,175.63 441.66,186.37 438.59,195.99 C435.51,205.60 433.00,214.04 433.00,214.74 Z" fill="rgb(17,14,9)"/>
<path d="M 982.22 170.72 C982.86,172.29 983.44,173.90 983.96,175.54 C985.63,180.76 987.05,185.81 987.10,186.76 C987.16,187.72 987.80,186.70 988.53,184.50 C989.58,181.32 989.86,162.09 989.92,90.25 L 990.00 0.00 L 989.95 93.25 C989.92,168.53 989.65,187.08 988.58,189.50 L 987.25 192.50 L 986.65 190.00 C986.32,188.62 985.34,183.91 984.47,179.51 C983.80,176.13 983.09,173.30 982.22,170.72 ZM 822.86 269.83 C819.10,271.88 815.04,273.63 810.50,275.17 L 802.93 277.73 C799.16,277.67 797.07,277.60 797.15,277.52 C797.41,277.26 801.95,276.19 807.23,275.15 C813.07,274.00 818.12,272.31 822.86,269.83 ZM 989.47 230.92 C989.26,227.12 988.97,224.69 988.59,223.50 L 987.34 219.50 L 986.07 225.39 C985.25,229.19 984.09,232.95 982.61,236.61 C982.91,235.83 983.20,235.05 983.48,234.26 C984.86,230.29 986.01,225.12 986.02,222.77 C986.03,217.68 987.26,215.03 988.62,217.14 C988.92,217.60 989.23,223.03 989.47,230.92 ZM 0.15 103.69 C0.27,143.52 0.60,172.57 0.96,170.75 C1.36,168.69 2.40,165.54 3.27,163.75 C3.65,162.97 4.18,161.78 4.76,160.41 C3.06,165.47 1.86,170.68 1.19,176.04 C0.60,180.75 0.26,157.29 0.15,103.69 ZM 932.50 277.00 C933.60,276.53 936.45,276.11 938.84,276.07 C941.85,276.02 945.47,274.78 951.47,271.72 C947.04,274.17 942.95,276.00 941.27,276.02 C940.30,276.02 938.83,276.47 938.00,277.00 C937.44,277.36 939.98,277.63 945.53,277.79 C936.72,277.63 931.70,277.34 932.50,277.00 ZM 8.57 151.12 C12.69,142.12 19.45,132.79 27.29,125.39 C33.59,119.45 40.53,114.55 47.93,110.75 C40.05,114.88 32.68,120.31 25.97,127.00 C18.60,134.35 12.78,142.44 8.57,151.12 ZM 818.63 277.88 L 910.50 277.88 L 853.58 277.94 C840.39,277.95 828.25,277.93 818.63,277.88 ZM 967.24 260.22 C966.44,261.05 965.61,261.87 964.77,262.66 C963.80,263.58 962.52,264.60 961.06,265.67 C963.22,264.00 965.28,262.18 967.24,260.22 ZM 990.00 278.00 L 989.95 262.78 L 990.00 267.31 ZM 962.02 143.38 C955.52,138.27 948.11,134.53 940.29,132.49 C948.24,134.56 955.60,138.30 962.02,143.38 Z" fill="rgb(146,135,131)"/>
<path d="M 192.00 0.43 C192.00,0.20 148.80,0.00 96.00,0.00 L 591.79 0.00 C259.27,0.00 193.81,0.22 195.04,1.34 C195.84,2.07 202.03,7.07 208.80,12.44 C215.56,17.81 220.93,22.73 220.72,23.35 C220.27,24.71 166.15,25.55 164.82,24.22 C164.37,23.77 170.31,18.34 178.00,12.14 C185.70,5.94 192.00,0.67 192.00,0.43 ZM 83.91 182.61 C83.03,183.67 79.61,184.00 69.54,184.00 C62.28,184.00 56.03,183.70 55.67,183.33 C53.66,181.32 56.76,159.43 59.28,157.79 C59.95,157.35 65.90,157.11 72.50,157.25 L 84.50 157.50 L 84.78 169.36 C84.97,177.25 84.68,181.68 83.91,182.61 ZM 122.83 180.02 L 122.50 183.50 L 108.23 183.78 C97.05,184.00 93.85,183.77 93.45,182.72 C93.16,181.98 93.06,176.01 93.22,169.44 L 93.50 157.50 L 105.36 157.22 C112.64,157.04 117.71,157.34 118.49,157.99 C120.10,159.33 123.27,175.41 122.83,180.02 ZM 85.06 194.00 L 84.50 218.50 L 60.17 219.06 L 59.11 215.78 C57.30,210.18 55.03,199.63 55.01,196.75 L 55.00 194.00 ZM 117.99 217.01 C117.02,218.83 115.89,219.00 104.96,219.00 L 93.00 219.00 L 93.00 194.00 L 108.00 194.00 C119.34,194.00 123.00,194.30 122.98,195.25 C122.95,197.91 119.00,215.12 117.99,217.01 ZM 43.80 182.80 C41.93,184.67 22.11,184.44 21.38,182.54 C20.51,180.29 23.98,165.67 26.40,161.35 L 28.56 157.50 L 37.44 157.21 C42.32,157.05 46.69,157.29 47.15,157.75 C47.61,158.21 47.32,161.71 46.51,165.54 C45.70,169.37 45.03,174.55 45.02,177.05 C45.01,179.55 44.46,182.14 43.80,182.80 ZM 155.80 179.34 L 155.50 183.50 L 144.73 183.78 C136.64,184.00 133.86,183.75 133.56,182.78 C133.34,182.08 132.66,177.45 132.04,172.50 C131.42,167.55 130.67,162.33 130.37,160.89 C129.70,157.72 130.58,157.40 141.08,157.10 C146.38,156.95 148.99,157.28 149.76,158.21 C152.03,160.94 156.11,175.19 155.80,179.34 ZM 48.45 218.09 C48.14,218.59 43.49,219.00 38.11,219.00 L 28.34 219.00 L 26.17 214.25 C24.20,209.94 21.05,198.33 21.01,195.25 C21.00,194.32 24.06,194.00 33.00,194.00 L 45.00 194.00 L 45.01 197.25 C45.01,199.04 45.91,204.25 47.01,208.84 C48.11,213.42 48.76,217.58 48.45,218.09 ZM 150.51 215.99 L 148.95 219.00 L 138.97 219.00 C138.37,219.00 137.80,219.00 137.27,219.00 C132.59,219.02 130.32,219.02 129.48,217.93 C128.68,216.90 129.15,214.90 130.05,211.01 C130.17,210.53 130.28,210.03 130.40,209.50 C131.16,206.20 132.08,201.36 132.45,198.75 L 133.12 194.00 L 156.00 194.00 L 155.99 197.25 C155.97,200.86 152.91,211.35 150.51,215.99 ZM 113.62 145.54 C113.18,146.69 110.92,147.00 103.03,147.00 L 93.00 147.00 L 93.00 134.50 C93.00,127.62 93.34,122.00 93.75,122.00 C95.20,122.01 100.54,125.76 104.15,129.31 C108.65,133.74 114.38,143.56 113.62,145.54 ZM 84.78 134.25 L 84.50 146.50 L 74.45 146.78 C68.92,146.94 64.10,146.77 63.74,146.41 C61.92,144.59 71.50,130.24 77.68,125.52 C84.95,119.97 85.10,120.16 84.78,134.25 ZM 84.50 241.42 C84.50,249.29 84.12,253.46 83.38,253.71 C81.50,254.33 69.51,241.79 67.19,236.76 C63.57,228.92 63.60,228.89 74.75,229.21 L 84.50 229.50 ZM 101.43 247.92 C97.85,251.26 94.48,254.00 93.93,254.00 C93.31,254.00 93.04,249.39 93.22,241.75 L 93.50 229.50 L 102.41 229.21 C107.35,229.05 111.76,229.36 112.30,229.90 C114.16,231.76 108.29,241.50 101.43,247.92 ZM 122.40 246.58 L 122.39 246.59 C118.18,248.95 115.90,250.23 115.31,249.68 C114.61,249.03 116.32,245.78 120.06,238.67 L 120.08 238.64 L 125.15 229.00 L 133.08 229.00 C139.24,229.00 141.00,229.31 141.00,230.42 C141.00,232.55 129.32,242.71 122.40,246.58 ZM 58.36 239.70 C60.90,244.76 62.63,249.11 62.21,249.37 C60.59,250.37 49.24,243.21 42.73,237.09 C37.81,232.46 36.27,230.44 37.21,229.85 C38.81,228.83 51.09,228.76 52.62,229.77 C53.24,230.17 55.82,234.64 58.36,239.70 ZM 140.62 145.81 C140.16,146.54 137.24,147.00 132.98,147.00 L 126.07 147.00 L 121.60 137.77 C119.14,132.69 117.35,128.32 117.62,128.04 C119.68,125.98 142.15,143.34 140.62,145.81 ZM 54.21 141.14 L 51.50 146.50 L 44.34 146.79 C40.39,146.95 36.91,146.66 36.59,146.15 C35.06,143.67 58.41,126.08 60.48,128.15 C60.81,128.48 60.15,130.33 59.00,132.27 C57.86,134.20 55.71,138.20 54.21,141.14 Z" fill="rgb(222,39,14)"/>
<path d="M -0.00 239.94 C-0.00,214.82 0.34,202.09 1.00,202.50 C1.55,202.84 2.00,203.97 2.00,205.01 C2.00,208.77 7.80,224.05 12.10,231.61 C14.53,235.88 20.02,243.08 24.35,247.66 C37.15,261.23 50.30,268.86 69.00,273.57 C78.32,275.92 80.85,276.16 91.50,275.73 C105.87,275.15 115.54,272.77 127.19,266.98 C150.77,255.24 168.01,234.36 174.63,209.50 C177.25,199.66 177.26,176.37 174.64,166.50 C168.54,143.49 151.74,122.36 130.95,111.55 C120.32,106.03 115.85,104.50 104.62,102.55 C75.88,97.54 48.11,105.74 27.29,125.39 C18.38,133.81 10.86,144.72 7.02,154.81 C5.83,157.94 4.15,161.96 3.27,163.75 C2.40,165.54 1.36,168.69 0.96,170.75 C0.56,172.81 0.18,135.24 0.11,87.25 L 0.00 0.00 L 96.00 0.00 C148.80,0.00 192.00,0.20 192.00,0.43 C192.00,0.67 185.70,5.94 178.00,12.14 C170.31,18.34 164.37,23.77 164.82,24.22 C166.15,25.55 220.27,24.71 220.72,23.35 C220.93,22.73 215.56,17.81 208.80,12.44 C202.03,7.07 195.84,2.07 195.04,1.34 C193.81,0.22 259.27,0.00 591.79,0.00 L 990.00 0.00 L 989.92 90.25 C989.86,162.09 989.58,181.32 988.53,184.50 C987.80,186.70 987.16,187.72 987.10,186.76 C987.05,185.81 985.63,180.76 983.96,175.54 C977.06,154.00 960.61,137.78 940.29,132.49 C932.55,130.47 913.63,130.53 905.64,132.59 C882.61,138.53 865.37,158.58 860.32,185.32 C858.37,195.65 858.98,219.57 861.42,228.50 C865.39,243.00 874.89,257.86 885.22,265.74 C891.60,270.60 895.46,272.63 904.00,275.61 L 910.50 277.88 L 856.50 277.88 L 802.50 277.87 L 810.50 275.17 C820.23,271.87 827.78,267.61 834.75,261.47 L 840.00 256.84 L 840.00 242.42 L 840.00 228.00 L 829.60 228.00 L 819.21 228.00 L 818.10 234.33 C817.50,237.81 817.00,241.60 817.00,242.76 C817.00,246.02 812.56,250.51 806.77,253.09 C802.29,255.09 799.85,255.45 790.50,255.47 C780.77,255.50 778.92,255.21 774.50,253.02 C767.45,249.53 761.86,243.53 757.63,234.91 C753.01,225.48 752.00,219.85 752.01,203.61 C752.03,188.38 753.59,180.43 758.28,171.63 C762.40,163.87 766.91,159.40 773.91,156.12 C778.93,153.77 780.68,153.50 791.00,153.50 C801.61,153.50 802.95,153.72 808.29,156.34 C815.14,159.71 816.55,161.67 817.42,169.00 C817.78,172.02 818.33,175.98 818.65,177.78 L 819.24 181.07 L 829.37 180.78 L 839.50 180.50 L 839.78 165.82 L 840.05 151.13 L 833.78 146.01 C826.15,139.79 815.76,134.61 806.69,132.51 C797.58,130.39 779.07,130.41 770.83,132.54 C748.65,138.26 731.83,155.79 725.28,180.00 C722.78,189.24 722.77,218.70 725.27,228.00 C728.59,240.39 734.50,250.69 743.40,259.61 C751.81,268.04 757.46,271.57 769.00,275.61 L 775.50 277.88 L 487.55 277.94 C263.59,277.99 199.87,277.73 200.80,276.80 C201.72,275.88 202.00,247.20 202.00,153.80 L 202.00 32.00 L 193.00 32.00 L 184.00 32.00 L 184.00 154.42 C184.00,251.41 184.26,276.94 185.25,277.34 C185.94,277.62 144.54,277.88 93.25,277.92 L 0.00 278.00 L -0.00 239.94 ZM 328.78 273.51 C347.68,267.54 362.20,252.38 367.66,232.92 C370.27,223.62 370.31,184.51 367.73,175.11 C362.22,155.10 345.90,139.25 325.95,134.55 C320.79,133.33 312.04,133.03 282.25,133.01 L 245.00 133.00 L 245.00 140.94 C245.00,145.98 245.43,149.15 246.18,149.61 C246.83,150.02 250.10,150.83 253.43,151.43 L 259.50 152.52 L 259.76 203.72 C260.05,261.19 260.74,256.10 252.48,257.50 C244.59,258.84 245.00,258.29 245.00,267.57 L 245.00 276.00 L 282.95 276.00 C320.61,276.00 320.96,275.98 328.78,273.51 ZM 428.80 267.59 C429.12,258.98 428.62,258.04 423.72,258.02 C422.19,258.01 420.69,257.36 420.39,256.57 C420.09,255.78 421.01,251.28 422.45,246.57 L 425.06 238.00 L 448.41 238.00 L 471.76 238.00 L 472.80 240.75 C478.16,254.93 478.26,258.00 473.38,258.00 C468.39,258.00 468.00,258.69 468.00,267.62 L 468.00 276.04 L 492.25 275.77 L 516.50 275.50 L 516.79 267.59 C517.12,258.92 516.64,258.05 511.50,258.00 C509.85,257.98 508.01,257.64 507.41,257.23 C506.81,256.83 502.61,245.70 498.07,232.50 C493.52,219.30 485.31,195.45 479.80,179.50 C474.30,163.55 468.44,146.55 466.80,141.72 L 463.80 132.95 L 448.65 133.22 L 433.50 133.50 L 429.17 146.00 C426.78,152.88 422.88,164.12 420.49,171.00 C412.02,195.39 398.74,233.64 395.33,243.50 C390.96,256.13 389.76,258.00 386.06,258.00 C380.38,258.00 380.00,258.56 380.00,266.94 C380.00,271.19 380.31,274.97 380.68,275.35 C381.06,275.73 391.97,275.91 404.93,275.77 L 428.50 275.50 L 428.80 267.59 ZM 588.79 267.28 C589.07,259.41 588.98,259.04 586.79,258.59 C585.53,258.33 582.14,257.59 579.25,256.96 L 574.00 255.80 L 574.00 243.28 C574.00,232.68 573.43,217.09 571.70,180.23 C571.53,176.74 571.81,174.10 572.32,174.27 C573.51,174.67 575.00,178.67 600.49,250.00 L 609.60 275.50 L 618.40 275.79 C623.33,275.95 627.73,275.64 628.42,275.07 C629.09,274.51 631.74,268.31 634.30,261.28 C641.85,240.58 659.56,191.26 663.06,181.19 C664.84,176.08 666.65,172.25 667.08,172.69 C667.52,173.14 667.24,186.77 666.46,203.00 C665.69,219.23 665.04,237.55 665.03,243.71 C665.00,256.22 665.00,256.22 657.48,257.50 C649.59,258.84 650.00,258.29 650.00,267.58 L 650.00 276.03 L 679.25 275.77 L 708.50 275.50 L 708.79 267.33 C709.11,258.15 709.86,259.00 699.75,257.00 L 694.00 255.86 L 694.00 204.50 C694.00,146.97 693.17,152.85 701.50,151.42 C708.76,150.18 709.00,149.84 709.00,140.95 L 709.00 132.97 L 682.40 133.23 L 655.81 133.50 L 641.83 174.00 C634.14,196.27 626.27,219.00 624.36,224.50 C622.44,230.00 620.66,235.14 620.40,235.92 C619.66,238.16 618.26,236.05 616.11,229.48 C615.03,226.19 611.67,216.30 608.64,207.50 C595.30,168.76 585.09,139.25 583.99,136.25 L 582.80 133.00 L 556.40 133.00 L 530.00 133.00 L 530.00 140.96 C530.00,149.84 530.24,150.18 537.50,151.42 C545.83,152.85 545.00,147.02 545.00,204.03 C545.00,261.11 545.70,256.10 537.48,257.50 C529.59,258.84 530.00,258.29 530.00,267.58 L 530.00 276.03 L 559.25 275.77 L 588.50 275.50 L 588.79 267.28 ZM 938.00 277.00 C938.83,276.47 940.30,276.02 941.27,276.02 C944.85,275.98 959.44,267.69 964.77,262.66 C975.50,252.54 983.08,239.27 986.07,225.39 L 987.34 219.50 L 988.59 223.50 C989.45,226.23 989.87,235.51 989.92,252.75 L 990.00 278.00 L 963.25 277.98 C945.61,277.97 937.01,277.64 938.00,277.00 ZM 72.36 261.57 C43.18,254.93 19.94,231.11 14.40,202.16 C10.70,182.82 14.88,162.37 25.83,146.25 C34.35,133.70 49.66,122.26 64.72,117.18 C71.81,114.79 73.92,114.55 88.50,114.53 C102.61,114.50 105.31,114.77 111.40,116.81 C135.28,124.81 152.68,141.43 160.45,163.65 C174.38,203.53 152.67,245.80 110.97,260.01 C102.64,262.85 81.70,263.69 72.36,261.57 ZM 84.50 241.42 L 84.50 229.50 L 74.75 229.21 C63.60,228.89 63.57,228.92 67.19,236.76 C69.51,241.79 81.50,254.33 83.38,253.71 C84.12,253.46 84.50,249.29 84.50,241.42 ZM 101.43 247.92 C108.29,241.50 114.16,231.76 112.30,229.90 C111.76,229.36 107.35,229.05 102.41,229.21 L 93.50 229.50 L 93.22 241.75 C93.04,249.39 93.31,254.00 93.93,254.00 C94.48,254.00 97.85,251.26 101.43,247.92 ZM 58.36 239.70 C55.82,234.64 53.24,230.17 52.62,229.77 C51.09,228.76 38.81,228.83 37.21,229.85 C36.27,230.44 37.81,232.46 42.73,237.09 C49.24,243.21 60.59,250.37 62.21,249.37 C62.63,249.11 60.90,244.76 58.36,239.70 ZM 122.40 246.58 C129.32,242.71 141.00,232.55 141.00,230.42 C141.00,229.31 139.24,229.00 133.08,229.00 L 125.15 229.00 L 120.08 238.64 C113.17,251.76 113.17,251.76 122.40,246.58 ZM 48.45 218.09 C48.76,217.58 48.11,213.42 47.01,208.84 C45.91,204.25 45.01,199.04 45.01,197.25 L 45.00 194.00 L 33.00 194.00 C24.06,194.00 21.00,194.32 21.01,195.25 C21.05,198.33 24.20,209.94 26.17,214.25 L 28.34 219.00 L 38.11 219.00 C43.49,219.00 48.14,218.59 48.45,218.09 ZM 84.78 206.25 L 85.06 194.00 L 70.03 194.00 L 55.00 194.00 L 55.01 196.75 C55.03,199.63 57.30,210.18 59.11,215.78 L 60.17 219.06 L 72.34 218.78 L 84.50 218.50 L 84.78 206.25 ZM 117.99 217.01 C119.00,215.12 122.95,197.91 122.98,195.25 C123.00,194.30 119.34,194.00 108.00,194.00 L 93.00 194.00 L 93.00 206.50 L 93.00 219.00 L 104.96 219.00 C115.89,219.00 117.02,218.83 117.99,217.01 ZM 150.51 215.99 C152.91,211.35 155.97,200.86 155.99,197.25 L 156.00 194.00 L 144.56 194.00 L 133.12 194.00 L 132.45 198.75 C132.08,201.36 131.16,206.20 130.40,209.50 C128.10,219.56 127.59,219.00 138.97,219.00 L 148.95 219.00 L 150.51 215.99 ZM 43.80 182.80 C44.46,182.14 45.01,179.55 45.02,177.05 C45.03,174.55 45.70,169.37 46.51,165.54 C47.32,161.71 47.61,158.21 47.15,157.75 C46.69,157.29 42.32,157.05 37.44,157.21 L 28.56 157.50 L 26.40 161.35 C23.98,165.67 20.51,180.29 21.38,182.54 C22.11,184.44 41.93,184.67 43.80,182.80 ZM 83.91 182.61 C84.68,181.68 84.97,177.25 84.78,169.36 L 84.50 157.50 L 72.50 157.25 C65.90,157.11 59.95,157.35 59.28,157.79 C56.76,159.43 53.66,181.32 55.67,183.33 C56.03,183.70 62.28,184.00 69.54,184.00 C79.61,184.00 83.03,183.67 83.91,182.61 ZM 122.83 180.02 C123.27,175.41 120.10,159.33 118.49,157.99 C117.71,157.34 112.64,157.04 105.36,157.22 L 93.50 157.50 L 93.22 169.44 C93.06,176.01 93.16,181.98 93.45,182.72 C93.85,183.77 97.05,184.00 108.23,183.78 L 122.50 183.50 L 122.83 180.02 ZM 155.80 179.34 C156.11,175.19 152.03,160.94 149.76,158.21 C148.99,157.28 146.38,156.95 141.08,157.10 C130.58,157.40 129.70,157.72 130.37,160.89 C130.67,162.33 131.42,167.55 132.04,172.50 C132.66,177.45 133.34,182.08 133.56,182.78 C133.86,183.75 136.64,184.00 144.73,183.78 L 155.50 183.50 L 155.80 179.34 ZM 54.21 141.14 C55.71,138.20 57.86,134.20 59.00,132.27 C60.15,130.33 60.81,128.48 60.48,128.15 C58.41,126.08 35.06,143.67 36.59,146.15 C36.91,146.66 40.39,146.95 44.34,146.79 L 51.50 146.50 L 54.21 141.14 ZM 84.78 134.25 C85.10,120.16 84.95,119.97 77.68,125.52 C71.50,130.24 61.92,144.59 63.74,146.41 C64.10,146.77 68.92,146.94 74.45,146.78 L 84.50 146.50 L 84.78 134.25 ZM 113.62 145.54 C114.38,143.56 108.65,133.74 104.15,129.31 C100.54,125.76 95.20,122.01 93.75,122.00 C93.34,122.00 93.00,127.62 93.00,134.50 L 93.00 147.00 L 103.03 147.00 C110.92,147.00 113.18,146.69 113.62,145.54 ZM 140.62 145.81 C142.15,143.34 119.68,125.98 117.62,128.04 C117.35,128.32 119.14,132.69 121.60,137.77 L 126.07 147.00 L 132.98 147.00 C137.24,147.00 140.16,146.54 140.62,145.81 ZM 914.50 255.06 C899.71,251.45 890.49,237.41 887.92,214.64 C885.64,194.33 889.87,173.96 898.58,163.33 C904.43,156.20 911.13,153.51 923.00,153.55 C934.60,153.57 940.86,155.95 947.08,162.70 C955.50,171.84 959.35,184.89 959.26,204.00 C959.15,225.55 954.89,238.33 944.70,247.64 C936.68,254.97 925.43,257.73 914.50,255.06 ZM 289.00 204.50 L 289.00 154.78 L 303.75 155.16 C317.83,155.53 318.74,155.68 323.83,158.48 C330.35,162.06 333.39,165.54 337.40,174.00 C340.46,180.46 340.48,180.63 340.84,200.00 C341.05,211.32 340.75,221.94 340.12,225.31 C338.06,236.47 331.98,245.52 323.00,250.83 C318.78,253.33 317.59,253.51 303.75,253.85 L 289.00 254.22 L 289.00 204.50 ZM 433.00 214.74 C433.00,214.04 435.51,205.60 438.59,195.99 C441.66,186.37 445.07,175.63 446.16,172.13 C448.25,165.44 449.17,165.22 450.79,171.00 C451.33,172.93 454.55,183.22 457.95,193.87 C461.34,204.53 463.88,213.86 463.59,214.62 C462.85,216.55 433.00,216.66 433.00,214.74 Z" fill="rgb(254,254,253)"/>
</g>
</svg>